# xmcd CD database file
#
# Track frame offsets:
#	187
#	15584
#	28253
#	44868
#	55880
#	69782
#	89457
#	101983
#	118559
#	142644
#	164587
#	181274
#	194355
#	217307
#	235574
#	256465
#
# Disc length: 3613 seconds
#
# Revision: 2
# Processed by: cddbd v1.4b41PL1 Copyright (c) Steve Scherf et al.
# Submitted via: Feurio! 1.50.2ß - http://www.feurio.com
#
DISCID=e60e1b10
DTITLE=Boney Moroney - Mercury
DYEAR=1900
DGENRE=
TTITLE0=Boney Moroney
TTITLE1=Wrap it up
TTITLE2=Shame, Shame, Shame
TTITLE3=The House is Rocking
TTITLE4=Big Apple
TTITLE5=Stand Back
TTITLE6=Bounty Hunter
TTITLE7=Statesboro Blues
TTITLE8=The Hunter
TTITLE9=She moves me
TTITLE10=Tightrope
TTITLE11=The Price you pay
TTITLE12=The Blues is alright
TTITLE13=Mercury Blues
TTITLE14=Lonesome Blues
TTITLE15=Too Tired
EXTD=Klatsch
EXTT0=
EXTT1=
EXTT2=
EXTT3=
EXTT4=
EXTT5=
EXTT6=
EXTT7=
EXTT8=
EXTT9=
EXTT10=
EXTT11=
EXTT12=
EXTT13=
EXTT14=
EXTT15=
PLAYORDER=
